<svg id="Layer_1" data-name="Layer 1" xmlns="http://www.w3.org/2000/svg" viewBox="0 0 309.82 210"><defs><style>.cls-1{fill:#fff;stroke-width:10px;}.cls-1,.cls-2,.cls-3{stroke:#ef4136;stroke-miterlimit:10;}.cls-2{fill:none;stroke-width:5px;}.cls-3{fill:#ef4136;}</style></defs><ellipse class="cls-1" cx="111.82" cy="106.7" rx="106.82" ry="98.3"/><ellipse class="cls-1" cx="112.95" cy="105.57" rx="81.82" ry="73.3"/><ellipse class="cls-1" cx="111.82" cy="105" rx="54.55" ry="47.73"/><ellipse class="cls-1" cx="111.25" cy="103.01" rx="25.57" ry="23.58"/><line class="cls-2" x1="110.92" y1="103.36" x2="292.69" y2="18.38"/><line class="cls-2" x1="252.08" y1="23.81" x2="298.33" y2="2.27"/><line class="cls-2" x1="262.52" y1="46.83" x2="308.76" y2="25.27"/><line class="cls-2" x1="245.1" y1="41.01" x2="264.78" y2="46.53"/><line class="cls-2" x1="244.65" y1="40.78" x2="253.88" y2="22.54"/><line class="cls-2" x1="287.46" y1="21.2" x2="296.69" y2="2.97"/><line class="cls-2" x1="287.72" y1="21.11" x2="307.41" y2="26.63"/><rect class="cls-3" x="415.43" y="153.96" width="44.32" height="7.04" transform="translate(-192.68 64.25) rotate(-25)"/><rect class="cls-3" x="421.91" y="165.19" width="42.26" height="8.42" transform="translate(-197.21 67.67) rotate(-25)"/><rect class="cls-3" x="249.54" y="29.89" width="6.33" height="12.16"/><rect class="cls-3" x="285.24" y="7.24" width="6.33" height="12.16"/><rect class="cls-3" x="294.84" y="22.97" width="4.25" height="8.21"/></svg>